<svg xmlns="http://www.w3.org/2000/svg" xmlns:xlink="http://www.w3.org/1999/xlink" version="1.1" x="0px" y="0px" viewBox="0 0 100 125" enable-background="new 0 0 100 100" xml:space="preserve"><g><path fill="none" d="M38.629,86.985c-0.119,2.098,0.863,3.9,1.516,5.85c1.928-1.474,3.378-3.426,3.856-5.119   C40.635,86.552,40.635,86.552,38.629,86.985z"/><path fill="none" d="M46.674,74.334c-0.748,0.274-1.531,0.513-2.099,1.165c-0.193,0.221-0.564,0.288-0.899,0.449   c-0.75-1.055-1.445-2.032-2.139-3.011c-0.962-1.354-1.765-1.597-3.277-0.89c-0.403,0.189-0.77,0.536-1.047,0.892   c-0.327,0.421-0.508,0.952-0.806,1.398c-0.401,0.601-0.503,1.236-0.373,1.929c0.113,0.596,0.204,1.196,0.324,1.79   c0.307,1.519,0.62,3.036,0.94,4.552c0.18,0.852,0.379,1.699,0.581,2.601c1.276-0.053,2.276-0.166,3.265-0.116   c1.015,0.053,1.958,0.374,2.816,1.005c0.698,0.512,1.242,0.35,1.745-0.304c0.205-0.268,0.383-0.557,0.561-0.843   c1.069-1.716,2.156-3.421,3.191-5.157c0.582-0.976,1.076-2.006,1.568-2.933c-0.098-0.32-0.136-0.522-0.22-0.704   C50.008,74.415,48.426,73.693,46.674,74.334z"/><path fill="none" d="M38.156,70.469c0.692-0.231,1.433-0.318,2.274-0.493c0.352-2.413,0.692-4.817,1.056-7.217   c0.132-0.869,0.311-1.73,0.487-2.591c0.203-0.993,0.481-1.974,0.633-2.973c0.367-2.409,0.675-4.828,1.019-7.24   c0.095-0.67,0.152-1.359,0.362-1.994c0.643-1.946,0.885-3.96,1.159-5.973c0.766-5.635,1.532-11.27,2.29-16.906   c0.07-0.521,0.081-1.051,0.124-1.643c-1.283-0.388-2.43-0.956-3.724-0.593c-0.236,1.762-0.439,3.438-0.687,5.108   c-0.497,3.349-1.013,6.694-1.528,10.039c-0.165,1.07-0.351,2.137-0.53,3.205c-0.323,1.936-0.66,3.87-0.968,5.808   c-0.32,2.006-0.596,4.019-0.924,6.023c-0.741,4.544-1.492,9.085-2.261,13.624c-0.134,0.794-0.366,1.572-0.562,2.355   c-0.189,0.759-0.425,1.512-0.33,2.438C36.839,71.07,37.473,70.696,38.156,70.469z"/><path fill="none" d="M57.553,24.671c-0.122,0.361-0.256,0.665-0.326,0.982c-1.345,6.081-2.717,12.157-4.003,18.25   c-0.503,2.381-0.768,4.81-1.224,7.203c-0.494,2.593-1.086,5.167-1.63,7.75c-0.111,0.529-0.206,1.062-0.286,1.596   c-0.23,1.537-0.395,3.085-0.685,4.61c-0.354,1.862-0.816,3.703-1.213,5.556c-0.08,0.375-0.078,0.766-0.103,1.032   c1.266,0.582,2.401,1.105,3.649,1.68c0.158-0.891,0.293-1.754,0.466-2.611c0.778-3.847,1.605-7.686,2.343-11.542   c1.196-6.249,2.334-12.51,3.502-18.764c0.124-0.665,0.29-1.322,0.429-1.985c0.511-2.452,1.005-4.907,1.536-7.355   c0.358-1.651,0.772-3.291,1.146-4.939c0.056-0.245,0.027-0.509,0.039-0.806C59.991,24.878,58.864,24.49,57.553,24.671z"/><path fill="none" d="M45.784,46.392c-0.616,2.989-1.091,5.99-1.475,9.011c-0.239,1.877-0.344,3.774-1.085,5.557   c-0.153,0.367-0.185,0.79-0.236,1.192c-0.355,2.75-0.701,5.503-1.037,8.153c0.422,0.873,0.778,1.671,1.19,2.44   c0.177,0.329,0.468,0.598,0.727,0.919c0.999-0.528,1.887-0.996,2.821-1.489c0.076-0.429,0.181-0.823,0.212-1.223   c0.203-2.644,0.801-5.212,1.444-7.773c0.082-0.327,0.177-0.664,0.179-0.997c0.014-2.741,0.809-5.342,1.404-7.979   c0.506-2.244,1.081-4.471,1.176-6.79c0.03-0.736,0.224-1.47,0.387-2.196c1.471-6.536,2.953-13.069,4.417-19.607   c0.082-0.366,0.019-0.764,0.024-1.253c-2.28-0.356-4.422-0.997-6.922-0.816c-0.11,0.618-0.21,1.076-0.271,1.538   c-0.505,3.892-0.982,7.789-1.511,11.678C46.79,39.976,46.438,43.216,45.784,46.392z"/><path fill="none" d="M63.021,9.661c-0.779-0.516-1.665-0.929-2.559-1.203c-1.676-0.513-3.372-1.024-5.098-1.288   c-2.065-0.317-4.177-0.318-6.255-0.567c-1.269-0.152-2.241,0.208-3.092,1.224c-0.203,1.392-0.584,2.829-0.444,4.41   c0.619,0.268,1.204,0.684,1.831,0.764c2.282,0.292,4.553,0.614,6.765,1.271c0.193,0.057,0.398,0.096,0.599,0.102   c2.042,0.061,4.023,0.496,5.982,1.025c0.82,0.222,1.585,0.166,2.539-0.24c0.258-1.019,0.506-2.002,0.754-2.984   C64.353,10.947,64.493,10.635,63.021,9.661z"/><path fill="none" d="M47.357,19.907c-1.005-0.103-1.998-0.324-3.001-0.442c-0.21-0.025-0.445,0.16-0.668,0.249   c0.12,0.207,0.193,0.535,0.366,0.602c1.002,0.387,2.005,0.825,3.049,1.041c4.36,0.904,8.735,1.734,13.105,2.587   c0.264,0.052,0.541,0.112,0.802,0.081c0.656-0.079,1.145-0.368,1.162-1.207c-0.227-0.09-0.455-0.214-0.7-0.27   C56.806,21.458,52.135,20.398,47.357,19.907z"/><path fill="none" d="M62.167,16.892c-1.883-0.517-3.768-1.038-5.677-1.442c-3.365-0.711-6.766-1.218-10.204-1.411   c-0.524-0.03-1.075,0.034-1.582,0.171c-0.475,0.128-0.553,0.525-0.284,1.033c6.123,1.383,12.373,2.362,18.614,3.394   c0.107,0.018,0.235-0.088,0.463-0.182c-0.032-0.276,0.042-0.698-0.13-0.865C63.044,17.274,62.604,17.011,62.167,16.892z"/><path fill="none" d="M62.162,19.845c-0.321-0.102-0.651-0.186-0.983-0.244c-5.263-0.915-10.526-1.824-15.79-2.732   c-0.199-0.034-0.437-0.116-0.597-0.043c-0.358,0.16-0.722,0.36-0.996,0.631c-0.144,0.142-0.104,0.468-0.151,0.732   c5.612,0.997,10.938,1.946,16.265,2.886c0.664,0.118,1.333,0.217,2.003,0.294c0.39,0.044,0.622-0.187,0.718-0.556   C62.751,20.357,62.578,19.979,62.162,19.845z"/><path fill-rule="evenodd" clip-rule="evenodd" d="M65.942,11.577c0.199-0.949-0.072-1.741-0.797-2.371   c-1.453-1.262-3.079-2.179-5.006-2.511c-2.863-0.494-5.726-0.987-8.58-1.528c-1.922-0.364-3.761-0.112-5.577,0.532   c-0.979,0.346-1.58,0.991-1.721,2.047c-0.125,0.938-0.355,1.869-0.408,2.811c-0.076,1.35-0.537,2.48-1.502,3.425   c-0.657,0.643-0.734,1.37-0.352,2.223c0.179,0.401,0.191,0.91,0.161,1.362c-0.041,0.604-0.196,1.2-0.303,1.799   c-0.109,0.608-0.148,1.192,0.206,1.763c0.502,0.81,0.331,1.672,0.15,2.55c-0.763,3.712-1.541,7.421-2.22,11.149   c-0.801,4.394-1.511,8.804-2.251,13.21c-0.436,2.602-0.88,5.203-1.274,7.813c-0.543,3.613-1.046,7.232-1.557,10.85   c-0.265,1.875-0.509,3.753-0.762,5.63c-0.055,0.401-0.197,0.814-0.146,1.201c0.235,1.808,0.507,3.612,0.8,5.411   c0.142,0.867,0.424,1.713,0.532,2.581c0.525,4.275,2.258,8.192,3.555,12.238c0.041,0.128,0.105,0.25,0.17,0.368   c0.579,1.054,1.278,1.161,2.049,0.257c0.922-1.081,1.76-2.233,2.698-3.299c2.065-2.345,3.895-4.847,5.321-7.635   c0.245-0.479,0.579-0.913,0.87-1.37c1.523-2.393,3.104-4.76,3.377-7.703c0.018-0.198,0.124-0.387,0.17-0.584   c0.732-3.165,1.551-6.312,2.172-9.499c1.695-8.701,3.33-17.414,4.936-26.132c0.588-3.193,1.022-6.415,1.537-9.621   c0.161-1.001,0.352-1.997,0.581-3.285c0.985-0.408,1.397-1.287,1.508-2.363c0.028-0.268,0.112-0.53,0.148-0.798   c0.111-0.808,0.232-1.573,0.971-2.135c0.458-0.348,0.481-0.944,0.296-1.5c-0.065-0.193-0.134-0.385-0.224-0.566   c-0.535-1.093-0.488-2.19-0.155-3.341C65.599,13.585,65.733,12.571,65.942,11.577z M36.377,69.006   c0.196-0.783,0.428-1.561,0.562-2.355c0.769-4.539,1.52-9.08,2.261-13.624c0.327-2.004,0.604-4.017,0.924-6.023   c0.309-1.938,0.645-3.872,0.968-5.808c0.178-1.067,0.365-2.134,0.53-3.205c0.515-3.345,1.031-6.69,1.528-10.039   c0.248-1.67,0.451-3.346,0.687-5.108c1.294-0.363,2.441,0.205,3.724,0.593c-0.043,0.592-0.054,1.121-0.124,1.643   c-0.758,5.637-1.524,11.271-2.29,16.906c-0.274,2.013-0.516,4.027-1.159,5.973c-0.21,0.635-0.267,1.324-0.362,1.994   c-0.343,2.412-0.651,4.831-1.019,7.24c-0.152,1-0.43,1.981-0.633,2.973c-0.176,0.861-0.355,1.722-0.487,2.591   c-0.364,2.4-0.705,4.805-1.056,7.217c-0.841,0.175-1.582,0.262-2.274,0.493c-0.683,0.227-1.317,0.601-2.109,0.974   C35.952,70.518,36.187,69.765,36.377,69.006z M48.739,25.08c0.06-0.462,0.161-0.92,0.271-1.538c2.5-0.181,4.642,0.46,6.922,0.816   c-0.006,0.489,0.058,0.887-0.024,1.253c-1.464,6.538-2.947,13.071-4.417,19.607c-0.163,0.726-0.356,1.46-0.387,2.196   c-0.095,2.319-0.67,4.546-1.176,6.79c-0.595,2.637-1.39,5.239-1.404,7.979c-0.002,0.333-0.097,0.67-0.179,0.997   c-0.643,2.561-1.24,5.129-1.444,7.773c-0.031,0.399-0.136,0.793-0.212,1.223c-0.934,0.493-1.821,0.961-2.821,1.489   c-0.259-0.321-0.55-0.59-0.727-0.919c-0.412-0.769-0.768-1.567-1.19-2.44c0.336-2.651,0.682-5.403,1.037-8.153   c0.051-0.402,0.083-0.825,0.236-1.192c0.741-1.783,0.845-3.68,1.085-5.557c0.384-3.021,0.86-6.021,1.475-9.011   c0.654-3.176,1.006-6.416,1.444-9.634C47.756,32.868,48.233,28.972,48.739,25.08z M40.145,92.835   c-0.653-1.949-1.635-3.751-1.516-5.85c2.007-0.433,2.007-0.433,5.372,0.73C43.522,89.409,42.073,91.361,40.145,92.835z    M49.457,79.793c-1.035,1.737-2.123,3.441-3.191,5.157c-0.178,0.286-0.355,0.575-0.561,0.843c-0.503,0.655-1.047,0.817-1.745,0.304   c-0.858-0.631-1.801-0.951-2.816-1.005c-0.99-0.05-1.99,0.063-3.265,0.116c-0.202-0.902-0.401-1.749-0.581-2.601   c-0.32-1.516-0.633-3.033-0.94-4.552c-0.12-0.594-0.212-1.194-0.324-1.79c-0.13-0.693-0.028-1.328,0.373-1.929   c0.298-0.446,0.479-0.977,0.806-1.398c0.277-0.356,0.644-0.703,1.047-0.892c1.513-0.707,2.316-0.464,3.277,0.89   c0.695,0.979,1.389,1.956,2.139,3.011c0.336-0.16,0.706-0.227,0.899-0.449c0.568-0.651,1.351-0.891,2.099-1.165   c1.752-0.641,3.335,0.082,4.131,1.822c0.083,0.182,0.122,0.384,0.22,0.704C50.532,77.787,50.038,78.817,49.457,79.793z    M61.153,26.134c-0.374,1.648-0.788,3.288-1.146,4.939c-0.53,2.448-1.024,4.903-1.536,7.355c-0.139,0.663-0.304,1.32-0.429,1.985   c-1.168,6.255-2.306,12.515-3.502,18.764c-0.738,3.855-1.564,7.694-2.343,11.542c-0.173,0.857-0.308,1.72-0.466,2.611   c-1.248-0.575-2.383-1.098-3.649-1.68c0.025-0.265,0.023-0.657,0.103-1.032c0.397-1.853,0.859-3.694,1.213-5.556   c0.29-1.524,0.455-3.073,0.685-4.61c0.08-0.534,0.175-1.067,0.286-1.596c0.544-2.584,1.136-5.158,1.63-7.75   c0.456-2.393,0.721-4.822,1.224-7.203c1.287-6.093,2.659-12.168,4.003-18.25c0.07-0.317,0.204-0.621,0.326-0.982   c1.311-0.18,2.439,0.207,3.64,0.658C61.18,25.626,61.209,25.889,61.153,26.134z M61.009,24.024   c-0.261,0.031-0.538-0.029-0.802-0.081c-4.37-0.853-8.745-1.683-13.105-2.587c-1.044-0.216-2.047-0.654-3.049-1.041   c-0.173-0.067-0.246-0.394-0.366-0.602c0.223-0.088,0.458-0.274,0.668-0.249c1.004,0.118,1.996,0.338,3.001,0.442   c4.778,0.492,9.449,1.552,14.115,2.641c0.245,0.056,0.473,0.181,0.7,0.27C62.154,23.656,61.665,23.945,61.009,24.024z    M62.631,20.812c-0.096,0.369-0.328,0.6-0.718,0.556c-0.67-0.077-1.339-0.176-2.003-0.294c-5.326-0.941-10.653-1.889-16.265-2.886   c0.047-0.264,0.007-0.591,0.151-0.732c0.275-0.271,0.639-0.47,0.996-0.631c0.161-0.072,0.399,0.009,0.597,0.043   c5.264,0.908,10.527,1.818,15.79,2.732c0.332,0.058,0.661,0.142,0.983,0.244C62.578,19.979,62.751,20.357,62.631,20.812z    M63.034,18.637c-6.24-1.032-12.491-2.011-18.614-3.394c-0.27-0.508-0.192-0.904,0.284-1.033c0.507-0.137,1.058-0.201,1.582-0.171   c3.439,0.193,6.839,0.7,10.204,1.411c1.909,0.403,3.794,0.924,5.677,1.442c0.437,0.119,0.877,0.383,1.2,0.698   c0.172,0.168,0.098,0.589,0.13,0.865C63.269,18.548,63.141,18.655,63.034,18.637z M64.043,12.174   c-0.248,0.983-0.496,1.965-0.754,2.984c-0.954,0.406-1.719,0.462-2.539,0.24c-1.959-0.529-3.94-0.963-5.982-1.025   c-0.201-0.006-0.406-0.044-0.599-0.102c-2.212-0.657-4.483-0.979-6.765-1.271c-0.628-0.08-1.212-0.496-1.831-0.764   c-0.141-1.582,0.241-3.019,0.444-4.41c0.852-1.015,1.823-1.375,3.092-1.224c2.078,0.249,4.19,0.249,6.255,0.567   c1.726,0.265,3.423,0.776,5.098,1.288c0.894,0.274,1.78,0.687,2.559,1.203C64.493,10.635,64.353,10.947,64.043,12.174z"/></g><text x="0" y="115" fill="#000000" font-size="5px" font-weight="bold" font-family="'Helvetica Neue', Helvetica, Arial-Unicode, Arial, Sans-serif">Created by Vladimir Belochkin</text><text x="0" y="120" fill="#000000" font-size="5px" font-weight="bold" font-family="'Helvetica Neue', Helvetica, Arial-Unicode, Arial, Sans-serif">from the Noun Project</text></svg>